<svg width="600" height="128" viewBox="0 0 600 128" fill="none" xmlns="http://www.w3.org/2000/svg">
<path d="M247.233 4.76001V57.225H234.817V4.76001H247.233Z" fill="#3996D2"/>
<path d="M297.424 57.225H281.602L266.461 16.572C266.966 20.558 267.344 24.093 267.597 27.17C267.9 30.199 268.051 33.808 268.051 37.998V57.226H256.996V4.76001H272.44L287.961 45.49C286.851 38.576 286.297 32.065 286.297 25.959V4.76001H297.426V57.226L297.424 57.225Z" fill="#3996D2"/>
<path d="M343.009 4.76001L341.797 14.299H328.852V57.225H316.435V14.299H302.884V4.76001H343.009Z" fill="#3996D2"/>
<path d="M380.11 4.76001L378.824 13.618H360.351V26.184H376.476V34.891H360.351V48.29H380.111V57.224H347.936V4.758L380.11 4.76001Z" fill="#3996D2"/>
<path d="M404.972 37.164H400.125V57.227H387.709V4.76199H404.895C412.062 4.76199 417.437 6.07501 421.021 8.70001C424.655 11.323 426.472 15.337 426.472 20.737C426.472 24.118 425.663 26.943 424.049 29.216C422.434 31.438 419.886 33.33 416.403 34.895L429.727 57.229H415.72L404.972 37.164ZM400.125 28.607H405.35C408.125 28.607 410.196 27.976 411.557 26.714C412.97 25.452 413.677 23.46 413.677 20.734C413.677 18.212 412.92 16.369 411.406 15.208C409.942 14.047 407.673 13.467 404.593 13.467H400.125V28.607Z" fill="#3996D2"/>
<path d="M472.989 4.76001L458.379 57.225H442.935L427.794 4.76001H440.891L450.884 47.534L460.272 4.76001H472.989Z" fill="#3996D2"/>
<path d="M489.288 4.76001V57.225H476.872V4.76001H489.288Z" fill="#3996D2"/>
<path d="M531.229 4.76001L529.942 13.618H511.469V26.184H527.595V34.891H511.469V48.29H531.229V57.224H499.054V4.758L531.229 4.76001Z" fill="#3996D2"/>
<path d="M597.276 4.76001L588.494 57.225H572.368L565.857 17.177L558.967 57.225H543.221L534.591 4.76001H547.007L552.232 47.838L559.501 4.76001H572.522L579.336 47.838L585.469 4.76001H597.276Z" fill="#3996D2"/>
<path d="M247.233 69.489V121.955H234.817V69.489H247.233V69.489ZM277.365 69.489L260.635 93.035L278.729 121.955H264.345L247.614 93.944L264.269 69.489H277.365Z" fill="#344158"/>
<path d="M295.141 69.489V121.955H282.725V69.489H295.141V69.489Z" fill="#344158"/>
<path d="M326.329 68.203C329.61 68.203 332.514 68.683 335.036 69.642C337.61 70.601 340.032 72.038 342.305 73.956L336.401 80.997C334.838 79.787 333.297 78.878 331.782 78.27C330.268 77.666 328.653 77.363 326.937 77.363C323.405 77.363 320.603 78.85 318.533 81.831C316.515 84.809 315.506 89.401 315.506 95.608C315.506 101.715 316.515 106.257 318.533 109.235C320.603 112.163 323.455 113.628 327.09 113.628C329.008 113.628 330.749 113.274 332.315 112.568C333.878 111.809 335.569 110.751 337.387 109.387L342.912 116.503C340.944 118.472 338.549 120.086 335.723 121.348C332.947 122.612 329.868 123.243 326.487 123.243C321.641 123.243 317.426 122.181 313.843 120.062C310.259 117.943 307.457 114.812 305.44 110.674C303.472 106.486 302.487 101.463 302.487 95.608C302.487 89.905 303.497 84.985 305.516 80.844C307.585 76.705 310.412 73.576 313.995 71.456C317.622 69.289 321.738 68.203 326.329 68.203Z" fill="#344158"/>
<path d="M360.793 69.489V121.955H348.377V69.489H360.793V69.489ZM390.926 69.489L374.195 93.035L392.29 121.955H377.905L361.175 93.944L377.831 69.489H390.926Z" fill="#344158"/>
<path d="M412.43 68.203C416.367 68.203 419.774 68.759 422.651 69.869C425.579 70.978 428.228 72.67 430.6 74.941L424.846 81.679C421.264 78.751 417.427 77.288 413.339 77.288C411.168 77.288 409.452 77.741 408.192 78.649C406.93 79.505 406.299 80.768 406.299 82.433C406.299 83.595 406.575 84.553 407.131 85.311C407.687 86.017 408.67 86.7 410.083 87.356C411.496 88.011 413.616 88.794 416.442 89.704C421.792 91.42 425.728 93.539 428.254 96.061C430.776 98.535 432.038 102.069 432.038 106.661C432.038 109.941 431.205 112.845 429.541 115.366C427.875 117.84 425.478 119.783 422.35 121.197C419.22 122.557 415.511 123.241 411.221 123.241C406.93 123.241 403.119 122.557 399.788 121.197C396.508 119.834 393.682 118.015 391.309 115.746L397.592 108.856C399.612 110.572 401.682 111.859 403.8 112.716C405.971 113.573 408.318 114.003 410.841 114.003C413.413 114.003 415.434 113.447 416.898 112.337C418.412 111.176 419.169 109.587 419.169 107.567C419.169 106.254 418.893 105.169 418.336 104.311C417.78 103.403 416.822 102.594 415.458 101.887C414.098 101.181 412.127 100.423 409.554 99.616C403.749 97.848 399.612 95.678 397.138 93.106C394.716 90.531 393.503 87.275 393.503 83.337C393.503 80.308 394.312 77.659 395.926 75.388C397.541 73.069 399.786 71.3 402.663 70.088C405.541 68.834 408.796 68.203 412.43 68.203Z" fill="#344158"/>
<path d="M473.131 69.489L471.92 79.028H458.975V121.955H446.559V79.028H433.007V69.489H473.131V69.489Z" fill="#344158"/>
<path d="M501.845 121.955L499.117 110.675H483.825L481.177 121.955H468.307L484.129 69.489H499.194L515.016 121.955H501.845ZM485.947 101.666H497L491.472 78.5L485.947 101.666Z" fill="#344158"/>
<path d="M536.128 101.891H531.281V121.954H518.865V69.488H536.052C543.218 69.488 548.594 70.801 552.178 73.426C555.812 76.049 557.626 80.063 557.626 85.462C557.626 88.844 556.819 91.67 555.204 93.941C553.59 96.163 551.04 98.054 547.558 99.62L560.882 121.954H546.877L536.128 101.891ZM531.281 93.337H536.507C539.282 93.337 541.353 92.706 542.714 91.443C544.127 90.18 544.833 88.188 544.833 85.463C544.833 82.94 544.076 81.099 542.562 79.937C541.098 78.778 538.829 78.197 535.749 78.197H531.282L531.281 93.337Z" fill="#344158"/>
<path d="M599.998 69.489L598.788 79.028H585.843V121.955H573.426V79.028H559.875V69.489H599.998V69.489Z" fill="#344158"/>
<path d="M36.41 13.546C32.422 13.546 29.647 14.153 28.088 15.367C26.613 16.494 25.877 18.531 25.877 21.477V47.354C25.877 52.555 24.836 56.371 22.756 58.797C20.763 61.225 17.598 63.002 13.264 64.129C17.598 65.169 20.805 66.901 22.886 69.33C24.967 71.671 26.007 75.44 26.007 80.643V106.52C26.007 109.467 26.744 111.504 28.218 112.63C29.779 113.845 32.509 114.451 36.41 114.451V127.585C29.215 127.585 23.58 126.805 19.504 125.244C15.517 123.769 12.7 121.515 11.053 118.481C9.40499 115.446 8.582 111.502 8.582 106.647V82.07C8.582 78.171 7.976 75.482 6.761 74.008C5.547 72.447 3.294 71.667 0 71.667V56.453C3.294 56.453 5.548 55.673 6.761 54.112C7.976 52.551 8.582 49.82 8.582 45.921V21.344C8.582 16.403 9.40399 12.458 11.053 9.51099C12.7 6.47599 15.517 4.22299 19.504 2.74799C23.58 1.18599 29.214 0.406006 36.41 0.406006V13.546Z" fill="#3996D2"/>
<path d="M139.488 0.412994C146.683 0.412994 152.275 1.193 156.262 2.754C160.337 4.229 163.155 6.482 164.714 9.517C166.36 12.464 167.185 16.41 167.185 21.35V45.927C167.185 49.827 167.791 52.56 169.006 54.119C170.22 55.679 172.473 56.459 175.767 56.459V71.674C172.473 71.674 170.219 72.454 169.006 74.015C167.791 75.491 167.185 78.176 167.185 82.078V106.655C167.185 111.509 166.361 115.454 164.714 118.489C163.153 121.522 160.337 123.778 156.262 125.251C152.275 126.812 146.683 127.593 139.488 127.593V114.459C143.389 114.459 146.077 113.852 147.551 112.638C149.112 111.511 149.892 109.474 149.892 106.528V80.651C149.892 75.449 150.932 71.677 153.012 69.338C155.093 66.91 158.257 65.177 162.505 64.137C158.17 63.01 154.963 61.234 152.882 58.805C150.889 56.378 149.892 52.565 149.892 47.363V21.486C149.892 18.539 149.112 16.502 147.551 15.375C146.076 14.161 143.39 13.554 139.488 13.554V0.412994Z" fill="#3996D2"/>
<path d="M66.024 45.959V100.054H51.531V45.959H66.024V45.959Z" fill="#344158"/>
<path d="M58.674 18.094C61.261 18.094 63.369 18.91 65.002 20.544C66.703 22.107 67.554 24.116 67.554 26.565C67.554 29.014 66.703 31.056 65.002 32.689C63.369 34.253 61.26 35.038 58.674 35.038C56.089 35.038 53.98 34.255 52.347 32.689C50.714 31.056 49.898 29.014 49.898 26.565C49.898 24.117 50.714 22.108 52.347 20.544C53.981 18.911 56.089 18.094 58.674 18.094Z" fill="#344158"/>
<path d="M94.729 22.79V100.055H80.237V24.423L94.729 22.79Z" fill="#344158"/>
<path d="M127.594 45.959L110.345 69.74L129.125 100.053H112.692L95.239 70.453L112.591 45.958L127.594 45.959Z" fill="#344158"/>
</svg>
