<svg width="85" height="18" viewBox="0 0 85 18" fill="none" xmlns="http://www.w3.org/2000/svg">
<path d="M29.7519 10.368L29.2496 11.7914H29.2077C29.124 11.4704 28.9705 10.982 28.7193 10.3959L26.0261 3.628H23.3887V14.4148H25.133V7.75853C25.133 7.3399 25.133 6.86544 25.119 6.27936C25.1051 5.98631 25.0772 5.76304 25.0632 5.59559H25.1051C25.1888 6.01422 25.2865 6.32122 25.3563 6.51658L28.5937 14.3869H29.8217L33.0312 6.44681C33.101 6.2654 33.1708 5.90258 33.2405 5.59559H33.2824C33.2405 6.39099 33.2126 7.10267 33.1987 7.53526V14.373H35.0546V3.60009H32.5149L29.7519 10.368ZM36.8129 6.64217H38.627V14.373H36.8129V6.64217ZM37.7339 3.37682C37.4269 3.37682 37.1757 3.48846 36.9664 3.68382C36.7571 3.87918 36.6454 4.13036 36.6454 4.43736C36.6454 4.73041 36.7571 4.98159 36.9664 5.17695C37.1757 5.37231 37.4269 5.47 37.7339 5.47C38.0409 5.47 38.306 5.35836 38.5014 5.17695C38.7107 4.98159 38.8223 4.73041 38.8223 4.43736C38.8223 4.14432 38.7107 3.89314 38.5014 3.68382C38.32 3.48846 38.0548 3.37682 37.7339 3.37682ZM45.06 6.5724C44.7251 6.50263 44.3762 6.46076 44.0413 6.46076C43.218 6.46076 42.4645 6.64217 41.8365 7.00499C41.2086 7.36781 40.7062 7.87017 40.3852 8.49812C40.0503 9.14003 39.8829 9.87961 39.8829 10.7308C39.8829 11.4704 40.0503 12.1263 40.3713 12.7263C40.6922 13.3124 41.1388 13.7869 41.7388 14.1078C42.311 14.4288 42.9808 14.5962 43.7343 14.5962C44.5995 14.5962 45.3391 14.4148 45.9252 14.0799L45.9391 14.066V12.3914L45.8694 12.4472C45.6042 12.6426 45.2972 12.8101 44.9902 12.9077C44.6693 13.0194 44.3762 13.0752 44.125 13.0752C43.3994 13.0752 42.8273 12.8659 42.4226 12.4054C42.004 11.9588 41.7946 11.3448 41.7946 10.5773C41.7946 9.78193 42.004 9.15398 42.4366 8.69348C42.8691 8.23298 43.4413 7.99576 44.139 7.99576C44.7251 7.99576 45.3251 8.19112 45.8694 8.58185L45.9391 8.63766V6.86544L45.9252 6.85149C45.6879 6.75381 45.4228 6.64217 45.06 6.5724ZM51.0465 6.51658C50.5999 6.51658 50.1813 6.65613 49.8185 6.94917C49.5115 7.20035 49.3022 7.56317 49.1208 7.99576H49.1068V6.64217H47.2927V14.373H49.1068V10.4238C49.1068 9.75402 49.2463 9.19584 49.5533 8.79116C49.8603 8.37253 50.2511 8.16321 50.7255 8.16321C50.893 8.16321 51.0604 8.20508 51.2697 8.23298C51.4651 8.2888 51.6047 8.34462 51.7023 8.41439L51.7721 8.47021V6.65613L51.7302 6.64217C51.6047 6.55845 51.3535 6.51658 51.0465 6.51658ZM55.9864 6.47472C54.7165 6.47472 53.6978 6.85149 52.9861 7.59108C52.2605 8.33067 51.9116 9.34934 51.9116 10.6332C51.9116 11.8332 52.2745 12.8101 52.9722 13.5217C53.6699 14.2195 54.6188 14.5823 55.805 14.5823C57.0469 14.5823 58.0377 14.2055 58.7494 13.452C59.475 12.6984 59.8238 11.6937 59.8238 10.4517C59.8238 9.22375 59.4889 8.24694 58.8052 7.53526C58.1493 6.82358 57.1864 6.47472 55.9864 6.47472ZM57.4376 12.4193C57.1027 12.8519 56.5725 13.0612 55.9166 13.0612C55.2607 13.0612 54.7305 12.8519 54.3537 12.3914C53.9769 11.9588 53.7955 11.3309 53.7955 10.5355C53.7955 9.71216 53.9909 9.08421 54.3537 8.63766C54.7305 8.19112 55.2468 7.96785 55.9026 7.96785C56.5445 7.96785 57.0469 8.17717 57.4097 8.60976C57.7725 9.04234 57.9679 9.6703 57.9679 10.4936C57.94 11.3309 57.7865 11.9867 57.4376 12.4193ZM63.8707 9.85171C63.2985 9.61448 62.9357 9.43307 62.7682 9.27957C62.6287 9.14003 62.5589 8.94466 62.5589 8.69348C62.5589 8.48416 62.6427 8.27485 62.852 8.1353C63.0613 7.99576 63.2985 7.92598 63.6474 7.92598C63.9544 7.92598 64.2753 7.9818 64.5823 8.06553C64.8893 8.14926 65.1684 8.27485 65.3917 8.4423L65.4615 8.49812V6.79567L65.4196 6.78172C65.2103 6.69799 64.9312 6.61426 64.5963 6.54449C64.2614 6.48867 63.9544 6.46076 63.7032 6.46076C62.838 6.46076 62.1263 6.67008 61.5682 7.13058C61.01 7.56317 60.7448 8.14926 60.7448 8.83303C60.7448 9.19584 60.8007 9.5168 60.9263 9.78193C61.0518 10.0471 61.2332 10.2982 61.4844 10.5076C61.7356 10.7029 62.0984 10.9262 62.6008 11.1355C63.0194 11.3169 63.3404 11.4565 63.5357 11.5681C63.7311 11.6797 63.8567 11.8053 63.9544 11.903C64.0241 12.0147 64.066 12.1542 64.066 12.3356C64.066 12.8519 63.6753 13.1031 62.8799 13.1031C62.5729 13.1031 62.2519 13.0473 61.8752 12.9217C61.4984 12.7961 61.1495 12.6147 60.8565 12.4054L60.7867 12.3496V14.1218L60.8286 14.1357C61.0937 14.2613 61.4147 14.3451 61.8054 14.4427C62.1961 14.5125 62.545 14.5683 62.852 14.5683C63.7869 14.5683 64.5544 14.359 65.0986 13.8985C65.6568 13.452 65.9499 12.8798 65.9499 12.1402C65.9499 11.6239 65.8103 11.1634 65.5033 10.8146C65.0986 10.4797 64.5963 10.1308 63.8707 9.85171ZM70.7363 6.47472C69.4664 6.47472 68.4477 6.85149 67.736 7.59108C67.0244 8.33067 66.6615 9.34934 66.6615 10.6332C66.6615 11.8332 67.0244 12.8101 67.7221 13.5217C68.4198 14.2195 69.3687 14.5823 70.5548 14.5823C71.7968 14.5823 72.7876 14.2055 73.4992 13.452C74.2249 12.6984 74.5737 11.6937 74.5737 10.4517C74.5737 9.22375 74.2388 8.24694 73.5551 7.53526C72.8992 6.82358 71.9363 6.47472 70.7363 6.47472ZM72.1736 12.4193C71.8387 12.8519 71.3084 13.0612 70.6525 13.0612C69.9827 13.0612 69.4664 12.8519 69.0896 12.3914C68.7129 11.9588 68.5314 11.3309 68.5314 10.5355C68.5314 9.71216 68.7268 9.08421 69.0896 8.63766C69.4664 8.19112 69.9827 7.96785 70.6386 7.96785C71.2665 7.96785 71.7828 8.17717 72.1457 8.60976C72.5085 9.04234 72.7038 9.6703 72.7038 10.4936C72.7038 11.3309 72.5224 11.9867 72.1736 12.4193ZM84.2721 8.1353V6.64217H82.4441V4.35364L82.3883 4.36759L80.6579 4.88391L80.616 4.89786V6.64217H77.881V5.66536C77.881 5.21881 77.9926 4.86995 78.188 4.64668C78.3833 4.42341 78.6764 4.31177 79.0392 4.31177C79.2904 4.31177 79.5555 4.36759 79.8485 4.49318L79.9183 4.53504V2.95819L79.8765 2.94423C79.6253 2.86051 79.2904 2.80469 78.8578 2.80469C78.3135 2.80469 77.8391 2.93028 77.4065 3.1396C76.9739 3.37682 76.653 3.69777 76.4157 4.13036C76.1785 4.549 76.0529 5.02345 76.0529 5.56768V6.64217H74.7831V8.12135H76.0529V14.373H77.881V8.1353H80.616V12.1123C80.616 13.745 81.3835 14.5683 82.9185 14.5683C83.1697 14.5683 83.4348 14.5265 83.686 14.4846C83.9512 14.4288 84.1465 14.359 84.2582 14.3032L84.2721 14.2892V12.7961L84.2023 12.8519C84.0907 12.9217 83.993 12.9775 83.8256 13.0194C83.686 13.0612 83.5604 13.0752 83.4627 13.0752C83.0999 13.0752 82.8488 12.9915 82.6674 12.7821C82.4999 12.5868 82.4162 12.2658 82.4162 11.7914V8.1353H84.2721Z" fill="#737373"/>
<path d="M0 0H8.5541V8.5541H0V0Z" fill="#F25022"/>
<path d="M9.44727 0H18.0014V8.5541H9.44727V0Z" fill="#7FBA00"/>
<path d="M0 9.44531H8.5541V17.9994H0V9.44531Z" fill="#00A4EF"/>
<path d="M9.44727 9.44531H18.0014V17.9994H9.44727V9.44531Z" fill="#FFB900"/>
</svg>
