<svg width="447" height="110" viewBox="0 0 447 110" fill="none" xmlns="http://www.w3.org/2000/svg">
<path d="M5.96751 78.2704C9.98991 86.706 16.1202 93.9647 23.7677 99.347C31.4152 104.729 40.322 108.054 49.6297 109C49.7094 109.006 49.7894 108.995 49.8648 108.969C49.9403 108.943 50.0095 108.902 50.0683 108.848C50.1271 108.794 50.1742 108.728 50.2066 108.655C50.2391 108.583 50.2562 108.504 50.257 108.424V104.154C50.2577 104.013 50.2057 103.876 50.1111 103.771C50.0164 103.666 49.8859 103.6 49.7451 103.586C41.8245 102.705 34.2439 99.8856 27.6761 95.3776C27.6266 95.3412 27.5896 95.2903 27.5704 95.232C27.5513 95.1737 27.5508 95.1108 27.569 95.0522C27.5872 94.9936 27.6233 94.9421 27.6722 94.905C27.7211 94.8678 27.7804 94.8467 27.8419 94.8448H38.5411C38.6165 94.8458 38.6914 94.8317 38.7613 94.8036C38.8313 94.7754 38.8949 94.7337 38.9486 94.6808C39.0022 94.6279 39.0448 94.5648 39.0739 94.4953C39.103 94.4259 39.1179 94.3513 39.1179 94.276V89.0776C39.1179 88.9248 39.0572 88.7783 38.949 88.6703C38.8408 88.5623 38.6941 88.5016 38.5411 88.5016H26.6667C26.6102 88.5008 26.5553 88.4835 26.5086 88.4518C26.4619 88.4201 26.4256 88.3754 26.4041 88.3233C26.3826 88.2712 26.3769 88.2139 26.3877 88.1585C26.3985 88.1032 26.4253 88.0523 26.4648 88.012L33.0257 81.46C33.1336 81.352 33.1941 81.2057 33.1941 81.0532C33.1941 80.9007 33.1336 80.7544 33.0257 80.6464L29.3415 76.9744C29.2334 76.8667 29.0869 76.8062 28.9342 76.8062C28.7814 76.8062 28.6349 76.8667 28.5268 76.9744L21.9659 83.5336C21.9252 83.5735 21.8735 83.6004 21.8174 83.611C21.7614 83.6215 21.7034 83.6152 21.6509 83.5929C21.5984 83.5705 21.5538 83.5331 21.5226 83.4854C21.4914 83.4377 21.4751 83.3818 21.4757 83.3248V71.4664C21.4757 71.3136 21.4149 71.1671 21.3067 71.0591C21.1986 70.9511 21.0519 70.8904 20.8989 70.8904H15.7007C15.5477 70.8904 15.401 70.9511 15.2928 71.0591C15.1847 71.1671 15.1239 71.3136 15.1239 71.4664V81.9496C15.123 82.0107 15.1026 82.07 15.0657 82.1188C15.0288 82.1676 14.9774 82.2034 14.9187 82.221C14.8601 82.2387 14.7974 82.2372 14.7397 82.2169C14.6819 82.1966 14.6322 82.1584 14.5976 82.108C10.3321 75.6965 7.66249 68.36 6.81105 60.7096C6.79518 60.5696 6.72844 60.4402 6.62347 60.346C6.51851 60.2518 6.3826 60.1993 6.24148 60.1984H1.57677C1.49592 60.198 1.41589 60.2146 1.34187 60.247C1.26784 60.2795 1.20149 60.3272 1.1471 60.3869C1.09271 60.4467 1.05151 60.5172 1.02617 60.5938C1.00082 60.6705 0.991907 60.7517 0.999993 60.832C1.66151 66.8825 3.34094 72.7781 5.96751 78.2704V78.2704Z" fill="#6236FF"/>
<path d="M60.1199 108.424C60.1206 108.504 60.138 108.584 60.1709 108.657C60.2037 108.731 60.2515 108.796 60.3111 108.851C60.3706 108.905 60.4408 108.946 60.5171 108.972C60.5934 108.997 60.6742 109.007 60.7544 109C66.9635 108.374 73.0175 106.682 78.649 103.996C87.0329 100.007 94.2569 93.9448 99.6348 86.384C105.013 78.8232 108.366 70.0151 109.377 60.796C109.385 60.7157 109.376 60.6345 109.351 60.5579C109.325 60.4812 109.284 60.4107 109.23 60.3509C109.175 60.2912 109.109 60.2435 109.035 60.2111C108.961 60.1786 108.881 60.162 108.8 60.1624H104.099C103.958 60.1633 103.822 60.2158 103.717 60.31C103.612 60.4042 103.546 60.5336 103.53 60.6736C102.679 68.3298 100.007 75.6716 95.7361 82.0864C95.7011 82.1373 95.6507 82.1757 95.5923 82.1959C95.5338 82.216 95.4705 82.2169 95.4115 82.1984C95.3525 82.1798 95.3011 82.1428 95.2648 82.0928C95.2284 82.0429 95.2092 81.9825 95.2098 81.9208V71.4664C95.2098 71.3908 95.1948 71.3159 95.1659 71.246C95.1369 71.1761 95.0944 71.1126 95.0408 71.0591C94.9873 71.0056 94.9237 70.9632 94.8537 70.9342C94.7837 70.9053 94.7087 70.8904 94.633 70.8904H89.4348C89.2818 70.8904 89.1351 70.9511 89.0269 71.0591C88.9187 71.1671 88.858 71.3136 88.858 71.4664V83.3176C88.8572 83.374 88.8398 83.4289 88.8081 83.4755C88.7764 83.5221 88.7316 83.5584 88.6794 83.5799C88.6272 83.6013 88.5699 83.607 88.5145 83.5962C88.459 83.5855 88.408 83.5587 88.3677 83.5192L81.8141 76.9744C81.7059 76.8667 81.5594 76.8062 81.4067 76.8062C81.254 76.8062 81.1075 76.8667 80.9994 76.9744L77.3152 80.6464C77.2073 80.7544 77.1467 80.9007 77.1467 81.0532C77.1467 81.2057 77.2073 81.352 77.3152 81.46L83.876 88.012C83.9156 88.0523 83.9424 88.1032 83.9532 88.1585C83.964 88.2139 83.9583 88.2712 83.9368 88.3233C83.9153 88.3754 83.879 88.4201 83.8323 88.4518C83.7856 88.4835 83.7306 88.5008 83.6742 88.5016H71.7997C71.6467 88.5016 71.5 88.5623 71.3919 88.6703C71.2837 88.7783 71.2229 88.9248 71.2229 89.0776V94.276C71.2229 94.3513 71.2379 94.4259 71.267 94.4953C71.296 94.5648 71.3386 94.6279 71.3923 94.6808C71.446 94.7337 71.5096 94.7754 71.5795 94.8036C71.6495 94.8317 71.7243 94.8458 71.7997 94.8448H82.5206C82.582 94.8468 82.6413 94.8678 82.6903 94.905C82.7392 94.9421 82.7753 94.9936 82.7935 95.0522C82.8117 95.1109 82.8112 95.1737 82.792 95.232C82.7729 95.2903 82.7359 95.3412 82.6864 95.3776C76.1123 99.8889 68.5239 102.708 60.5958 103.586C60.4555 103.601 60.326 103.668 60.2317 103.773C60.1373 103.878 60.0847 104.013 60.0839 104.154L60.1199 108.424Z" fill="#6236FF"/>
<path d="M75.4118 51.9688H63.5373C63.4803 51.9694 63.4243 51.9531 63.3766 51.922C63.3288 51.8908 63.2913 51.8462 63.2689 51.7938C63.2465 51.7414 63.2402 51.6835 63.2508 51.6275C63.2614 51.5715 63.2883 51.5199 63.3283 51.4792L69.8891 44.9272C69.997 44.8192 70.0576 44.6729 70.0576 44.5204C70.0576 44.3679 69.997 44.2216 69.8891 44.1136L66.2122 40.4416C66.104 40.3339 65.9575 40.2734 65.8048 40.2734C65.6521 40.2734 65.5056 40.3339 65.3975 40.4416L58.8438 46.9864C58.8035 47.0259 58.7525 47.0527 58.6971 47.0634C58.6417 47.0742 58.5843 47.0685 58.5321 47.0471C58.4799 47.0256 58.4352 46.9893 58.4034 46.9427C58.3717 46.8961 58.3543 46.8412 58.3535 46.7848V34.9264C58.3535 34.7736 58.2928 34.6271 58.1846 34.5191C58.0764 34.4111 57.9297 34.3504 57.7768 34.3504H52.5713C52.4959 34.3504 52.4213 34.3653 52.3517 34.3944C52.2821 34.4234 52.219 34.466 52.166 34.5195C52.113 34.5731 52.0712 34.6367 52.043 34.7065C52.0148 34.7764 52.0008 34.8511 52.0018 34.9264V46.792C52.0024 46.8499 51.9856 46.9066 51.9535 46.9548C51.9214 47.003 51.8755 47.0404 51.8218 47.0621C51.7681 47.0839 51.7091 47.089 51.6525 47.0768C51.5958 47.0645 51.5442 47.0356 51.5043 46.9936L44.9795 40.4416C44.8713 40.3339 44.7248 40.2734 44.5721 40.2734C44.4194 40.2734 44.2729 40.3339 44.1648 40.4416L40.4878 44.1136C40.3799 44.2216 40.3193 44.3679 40.3193 44.5204C40.3193 44.6729 40.3799 44.8192 40.4878 44.9272L47.0487 51.4792C47.0886 51.5199 47.1156 51.5715 47.1261 51.6275C47.1367 51.6835 47.1304 51.7414 47.108 51.7938C47.0856 51.8462 47.0482 51.8908 47.0004 51.922C46.9526 51.9531 46.8966 51.9694 46.8396 51.9688H34.9291C34.7761 51.9688 34.6294 52.0295 34.5212 52.1375C34.4131 52.2455 34.3523 52.392 34.3523 52.5448V57.736C34.3523 57.8888 34.4131 58.0353 34.5212 58.1433C34.6294 58.2513 34.7761 58.312 34.9291 58.312H46.8035C46.8606 58.3114 46.9165 58.3277 46.9643 58.3588C47.0121 58.39 47.0496 58.4346 47.0719 58.487C47.0943 58.5394 47.1006 58.5973 47.0901 58.6533C47.0795 58.7093 47.0526 58.7609 47.0126 58.8016L40.4517 65.3536C40.3439 65.4616 40.2833 65.6079 40.2833 65.7604C40.2833 65.9129 40.3439 66.0592 40.4517 66.1672L44.1287 69.8392C44.2368 69.9469 44.3833 70.0074 44.5361 70.0074C44.6888 70.0074 44.8353 69.9469 44.9434 69.8392L51.5043 63.2872C51.5442 63.2452 51.5958 63.2163 51.6525 63.204C51.7091 63.1918 51.7681 63.1969 51.8218 63.2187C51.8755 63.2404 51.9214 63.2778 51.9535 63.326C51.9856 63.3742 52.0024 63.4309 52.0018 63.4888V75.3544C52.0008 75.4297 52.0148 75.5044 52.043 75.5743C52.0712 75.6441 52.113 75.7077 52.166 75.7613C52.219 75.8148 52.2821 75.8574 52.3517 75.8864C52.4213 75.9155 52.4959 75.9304 52.5713 75.9304H57.7768C57.9297 75.9304 58.0764 75.8697 58.1846 75.7617C58.2928 75.6537 58.3535 75.5072 58.3535 75.3544V63.496C58.3543 63.4396 58.3717 63.3847 58.4034 63.3381C58.4352 63.2915 58.4799 63.2552 58.5321 63.2337C58.5843 63.2123 58.6417 63.2066 58.6971 63.2174C58.7525 63.2281 58.8035 63.2549 58.8438 63.2944L65.3975 69.8392C65.5056 69.9469 65.6521 70.0074 65.8048 70.0074C65.9575 70.0074 66.104 69.9469 66.2122 69.8392L69.8891 66.1672C69.997 66.0592 70.0576 65.9129 70.0576 65.7604C70.0576 65.6079 69.997 65.4616 69.8891 65.3536L63.3283 58.8016C63.2883 58.7609 63.2614 58.7093 63.2508 58.6533C63.2402 58.5973 63.2465 58.5394 63.2689 58.487C63.2913 58.4346 63.3288 58.39 63.3766 58.3588C63.4243 58.3277 63.4803 58.3114 63.5373 58.312H75.4118C75.5648 58.312 75.7115 58.2513 75.8197 58.1433C75.9278 58.0353 75.9886 57.8888 75.9886 57.736V52.5448C75.9886 52.392 75.9278 52.2455 75.8197 52.1375C75.7115 52.0295 75.5648 51.9688 75.4118 51.9688Z" fill="#6236FF"/>
<path d="M104.373 31.7296C98.9756 20.4803 89.885 11.4148 78.6129 6.04C72.9837 3.34204 66.9296 1.6369 60.7183 1C60.6411 0.998088 60.5641 1.01152 60.4921 1.03952C60.42 1.06752 60.3543 1.10953 60.2986 1.16312C60.2429 1.2167 60.1985 1.28079 60.1678 1.35166C60.1371 1.42254 60.1209 1.49879 60.1199 1.576V5.8456C60.1208 5.98653 60.1734 6.12226 60.2677 6.22708C60.3621 6.3319 60.4916 6.39855 60.6318 6.4144C68.56 7.29153 76.1483 10.1111 82.7225 14.6224C82.772 14.6588 82.8089 14.7097 82.8281 14.768C82.8473 14.8263 82.8478 14.8891 82.8296 14.9478C82.8113 15.0064 82.7752 15.0579 82.7263 15.095C82.6774 15.1322 82.6181 15.1532 82.5567 15.1552H71.7997C71.7243 15.1542 71.6495 15.1683 71.5795 15.1964C71.5096 15.2246 71.446 15.2663 71.3923 15.3192C71.3387 15.3721 71.2961 15.4352 71.267 15.5047C71.2379 15.5741 71.2229 15.6487 71.2229 15.724V20.9224C71.2229 21.0752 71.2837 21.2217 71.3919 21.3297C71.5 21.4377 71.6468 21.4984 71.7997 21.4984H83.6742C83.7306 21.4992 83.7856 21.5165 83.8323 21.5482C83.879 21.5799 83.9153 21.6246 83.9368 21.6767C83.9583 21.7288 83.964 21.7861 83.9532 21.8415C83.9424 21.8968 83.9156 21.9477 83.876 21.988L77.3152 28.54C77.2073 28.648 77.1467 28.7943 77.1467 28.9468C77.1467 29.0993 77.2073 29.2456 77.3152 29.3536L80.9994 33.0256C81.1075 33.1333 81.254 33.1938 81.4067 33.1938C81.5594 33.1938 81.7059 33.1333 81.8141 33.0256L88.3749 26.4664C88.4157 26.4265 88.4674 26.3996 88.5234 26.389C88.5795 26.3785 88.6375 26.3848 88.69 26.4071C88.7424 26.4295 88.7871 26.4669 88.8183 26.5146C88.8495 26.5623 88.8658 26.6182 88.8652 26.6752V38.5336C88.8652 38.6864 88.926 38.8329 89.0341 38.9409C89.1423 39.0489 89.289 39.1096 89.442 39.1096H94.6402C94.716 39.1096 94.7909 39.0947 94.8609 39.0658C94.9309 39.0368 94.9945 38.9944 95.048 38.9409C95.1016 38.8874 95.1441 38.8239 95.1731 38.754C95.2021 38.6841 95.217 38.6092 95.217 38.5336V28.0504C95.2179 27.9893 95.2383 27.93 95.2752 27.8812C95.312 27.8324 95.3635 27.7966 95.4221 27.779C95.4807 27.7613 95.5435 27.7628 95.6012 27.7831C95.6589 27.8034 95.7087 27.8416 95.7433 27.892C100.011 34.3022 102.681 41.6393 103.53 49.2904C103.546 49.4304 103.612 49.5598 103.717 49.654C103.822 49.7482 103.958 49.8007 104.099 49.8016H108.764C108.845 49.802 108.925 49.7854 108.999 49.753C109.073 49.7205 109.139 49.6728 109.194 49.6131C109.248 49.5533 109.289 49.4828 109.315 49.4062C109.34 49.3295 109.349 49.2483 109.341 49.168C108.679 43.1175 107 37.2219 104.373 31.7296V31.7296Z" fill="#6236FF"/>
<path d="M50.2569 1.57593C50.2561 1.49617 50.2389 1.41742 50.2065 1.34455C50.174 1.27167 50.127 1.20621 50.0682 1.15223C50.0094 1.09824 49.9401 1.05687 49.8647 1.03068C49.7893 1.00448 49.7092 0.994014 49.6296 0.999926C37.2294 2.26248 25.6376 7.73288 16.7879 16.4986C7.93813 25.2643 2.3656 36.7952 0.999855 49.1679C0.991769 49.2483 1.00069 49.3294 1.02603 49.4061C1.05137 49.4827 1.09257 49.5532 1.14696 49.613C1.20135 49.6727 1.26771 49.7204 1.34173 49.7529C1.41575 49.7854 1.49578 49.8019 1.57664 49.8015H6.24134C6.38247 49.8007 6.51837 49.7482 6.62334 49.6539C6.7283 49.5597 6.79504 49.4304 6.81091 49.2903C7.66174 41.6342 10.334 34.2923 14.6046 27.8775C14.6396 27.8266 14.69 27.7882 14.7484 27.768C14.8069 27.7479 14.8703 27.747 14.9292 27.7656C14.9882 27.7841 15.0397 27.8211 15.076 27.8711C15.1123 27.9211 15.1316 27.9814 15.131 28.0431V38.5335C15.131 38.6863 15.1917 38.8328 15.2999 38.9408C15.4081 39.0488 15.5548 39.1095 15.7077 39.1095H20.906C20.982 39.1105 21.0574 39.0963 21.1278 39.0676C21.1982 39.039 21.2622 38.9967 21.316 38.943C21.3697 38.8893 21.4122 38.8254 21.4408 38.7551C21.4695 38.6848 21.4837 38.6094 21.4827 38.5335V26.6823C21.4835 26.626 21.5009 26.5711 21.5326 26.5244C21.5644 26.4778 21.6091 26.4415 21.6613 26.4201C21.7135 26.3986 21.7709 26.3929 21.8263 26.4037C21.8817 26.4145 21.9327 26.4413 21.973 26.4807L28.5267 33.0255C28.6348 33.1332 28.7813 33.1937 28.934 33.1937C29.0867 33.1937 29.2332 33.1332 29.3414 33.0255L33.0256 29.3535C33.1334 29.2455 33.194 29.0992 33.194 28.9467C33.194 28.7942 33.1334 28.6479 33.0256 28.5399L26.4647 21.9879C26.4252 21.9477 26.3983 21.8967 26.3875 21.8414C26.3767 21.7861 26.3824 21.7288 26.4039 21.6766C26.4254 21.6245 26.4618 21.5798 26.5085 21.5481C26.5551 21.5164 26.6101 21.4991 26.6666 21.4983H38.541C38.694 21.4983 38.8407 21.4376 38.9489 21.3296C39.057 21.2216 39.1178 21.0751 39.1178 20.9223V15.7239C39.1178 15.6486 39.1028 15.5741 39.0738 15.5046C39.0447 15.4351 39.0021 15.3721 38.9484 15.3192C38.8948 15.2662 38.8311 15.2245 38.7612 15.1963C38.6913 15.1682 38.6164 15.1542 38.541 15.1551H27.8201C27.7568 15.1566 27.6948 15.1373 27.6436 15.1001C27.5924 15.0629 27.5549 15.0099 27.5369 14.9493C27.5188 14.8887 27.5212 14.8238 27.5438 14.7647C27.5663 14.7056 27.6077 14.6556 27.6615 14.6223C34.2324 10.11 41.8188 7.29027 49.745 6.41433C49.8858 6.40001 50.0163 6.33382 50.1109 6.22866C50.2056 6.1235 50.2576 5.98691 50.2569 5.84553V1.57593Z" fill="#6236FF"/>
<path d="M125.894 8.4016H157.884C158.037 8.4016 158.184 8.46229 158.292 8.57031C158.4 8.67833 158.461 8.82484 158.461 8.9776V19C158.461 19.1528 158.4 19.2993 158.292 19.4073C158.184 19.5153 158.037 19.576 157.884 19.576H141.179C141.103 19.576 141.029 19.6063 140.975 19.6604C140.921 19.7144 140.891 19.7876 140.891 19.864V23.0176C140.891 23.094 140.921 23.1672 140.975 23.2212C141.029 23.2753 141.103 23.3056 141.179 23.3056H155.44C155.516 23.3056 155.591 23.3205 155.661 23.3494C155.731 23.3784 155.794 23.4208 155.848 23.4743C155.901 23.5278 155.944 23.5913 155.973 23.6612C156.002 23.7311 156.017 23.806 156.017 23.8816V34.3072C156.017 34.3828 156.002 34.4577 155.973 34.5276C155.944 34.5975 155.901 34.661 155.848 34.7145C155.794 34.768 155.731 34.8104 155.661 34.8394C155.591 34.8683 155.516 34.8832 155.44 34.8832H141.179C141.103 34.8832 141.029 34.9135 140.975 34.9676C140.921 35.0216 140.891 35.0948 140.891 35.1712V38.3248C140.891 38.4012 140.921 38.4744 140.975 38.5284C141.029 38.5825 141.103 38.6128 141.179 38.6128H157.884C158.037 38.6128 158.184 38.6735 158.292 38.7815C158.4 38.8895 158.461 39.036 158.461 39.1888V49.24C158.461 49.3928 158.4 49.5393 158.292 49.6473C158.184 49.7553 158.037 49.816 157.884 49.816H125.894C125.819 49.816 125.744 49.8011 125.674 49.7722C125.604 49.7432 125.54 49.7008 125.487 49.6473C125.433 49.5938 125.391 49.5303 125.362 49.4604C125.333 49.3905 125.318 49.3156 125.318 49.24V8.9776C125.318 8.90196 125.333 8.82706 125.362 8.75717C125.391 8.68729 125.433 8.62379 125.487 8.57031C125.54 8.51682 125.604 8.47439 125.674 8.44545C125.744 8.4165 125.819 8.4016 125.894 8.4016V8.4016Z" fill="#6236FF"/>
<path d="M125.318 60.4792C125.318 60.3264 125.378 60.1799 125.487 60.0719C125.595 59.9639 125.741 59.9032 125.894 59.9032H148.468C151.483 59.8081 154.465 60.5562 157.077 62.0632C159.349 63.4313 161.171 65.4336 162.318 67.8232C163.516 70.3563 164.118 73.1294 164.077 75.9304C164.117 78.7559 163.445 81.546 162.123 84.0448C160.856 86.4417 158.927 88.4256 156.565 89.7616C154.015 91.1784 151.134 91.894 148.216 91.8352H140.797V100.475C140.797 100.628 140.736 100.774 140.628 100.883C140.52 100.991 140.373 101.051 140.22 101.051H125.894C125.819 101.051 125.744 101.036 125.674 101.007C125.604 100.978 125.54 100.936 125.487 100.883C125.433 100.829 125.391 100.766 125.362 100.696C125.333 100.626 125.318 100.551 125.318 100.475V60.4792ZM144.568 79.7752C145.078 79.8077 145.589 79.7343 146.069 79.5595C146.55 79.3848 146.988 79.1126 147.358 78.76C148.03 77.9805 148.373 76.9717 148.317 75.9448C148.317 73.3096 147.142 71.9848 144.798 71.9848H140.797V79.7824L144.568 79.7752Z" fill="#6236FF"/>
<path d="M166.608 8.5024H180.479C180.587 8.50327 180.692 8.5332 180.783 8.589C180.874 8.6448 180.949 8.72437 180.999 8.8192L189.009 25.0696C189.032 25.1183 189.069 25.1594 189.115 25.1881C189.161 25.2168 189.214 25.2321 189.268 25.2321C189.322 25.2321 189.375 25.2168 189.421 25.1881C189.467 25.1594 189.504 25.1183 189.528 25.0696L197.458 8.8264C197.504 8.72922 197.576 8.64706 197.667 8.58964C197.758 8.53223 197.863 8.50195 197.97 8.5024H211.842C211.995 8.5024 212.142 8.56308 212.25 8.67111C212.358 8.77913 212.419 8.92563 212.419 9.0784V49.3192C212.419 49.472 212.358 49.6185 212.25 49.7265C212.142 49.8345 211.995 49.8952 211.842 49.8952H197.422C197.347 49.8952 197.272 49.8803 197.202 49.8514C197.132 49.8224 197.068 49.78 197.015 49.7265C196.961 49.673 196.918 49.6095 196.889 49.5396C196.861 49.4697 196.846 49.3948 196.846 49.3192V37.8424C196.85 37.7107 196.808 37.5817 196.728 37.4772C196.648 37.3728 196.533 37.2994 196.405 37.2697C196.276 37.24 196.142 37.2557 196.023 37.3142C195.905 37.3726 195.811 37.4703 195.757 37.5904L193.342 42.5008C193.294 42.5975 193.22 42.679 193.128 42.7362C193.036 42.7934 192.931 42.8241 192.823 42.8248H185.613C185.505 42.8252 185.4 42.795 185.309 42.7376C185.219 42.6801 185.146 42.598 185.101 42.5008L182.686 37.5904C182.632 37.4703 182.537 37.3726 182.419 37.3142C182.301 37.2557 182.166 37.24 182.038 37.2697C181.909 37.2994 181.795 37.3728 181.715 37.4772C181.634 37.5817 181.593 37.7107 181.597 37.8424V49.3192C181.597 49.472 181.536 49.6185 181.428 49.7265C181.32 49.8345 181.173 49.8952 181.02 49.8952H166.601C166.525 49.8952 166.45 49.8803 166.38 49.8514C166.31 49.8224 166.246 49.78 166.193 49.7265C166.139 49.673 166.097 49.6095 166.068 49.5396C166.039 49.4697 166.024 49.3948 166.024 49.3192V9.0784C166.024 9.00215 166.039 8.92665 166.068 8.8563C166.098 8.78594 166.141 8.72212 166.195 8.66854C166.25 8.61496 166.314 8.57268 166.385 8.54416C166.456 8.51564 166.532 8.50145 166.608 8.5024V8.5024Z" fill="#6236FF"/>
<path d="M218.778 9.0784C218.778 8.92564 218.838 8.77913 218.947 8.67111C219.055 8.56309 219.201 8.5024 219.354 8.5024H242.072C245.101 8.40377 248.098 9.15187 250.724 10.6624C253.015 12.0451 254.849 14.0676 256.002 16.48C257.202 19.0304 257.806 21.8198 257.768 24.6376C257.809 27.4802 257.135 30.2877 255.807 32.8024C254.532 35.2173 252.59 37.2163 250.212 38.5624C247.644 39.9875 244.742 40.7033 241.806 40.636H234.351V49.3192C234.351 49.472 234.29 49.6185 234.182 49.7265C234.074 49.8345 233.927 49.8952 233.774 49.8952H219.354C219.201 49.8952 219.055 49.8345 218.947 49.7265C218.838 49.6185 218.778 49.472 218.778 49.3192V9.0784ZM238.15 28.5184C238.668 28.5556 239.189 28.4831 239.677 28.3057C240.165 28.1283 240.611 27.8499 240.984 27.4888C241.66 26.706 242.004 25.691 241.943 24.6592C241.943 22.0096 240.767 20.6776 238.403 20.6776H234.639C234.563 20.6776 234.489 20.7079 234.435 20.762C234.381 20.816 234.351 20.8892 234.351 20.9656V28.2016C234.351 28.278 234.381 28.3512 234.435 28.4052C234.489 28.4593 234.563 28.4896 234.639 28.4896L238.15 28.5184Z" fill="#6236FF"/>
<path d="M266.376 45.5248C262.627 42.1648 260.75 36.7216 260.746 29.1952C260.741 21.6688 262.618 16.228 266.376 12.8728C270.135 9.5128 275.663 7.8328 282.959 7.8328C290.255 7.8328 295.783 9.5128 299.541 12.8728C303.295 16.2328 305.172 21.6736 305.172 29.1952C305.172 36.7168 303.295 42.16 299.541 45.5248C295.787 48.8848 290.26 50.5648 282.959 50.5648C275.658 50.5648 270.13 48.8848 266.376 45.5248ZM287.811 35.56C288.772 34.336 289.253 32.224 289.253 29.224C289.253 26.224 288.772 24.1144 287.811 22.8952C286.845 21.6712 285.23 21.0664 282.952 21.0664C280.673 21.0664 279.058 21.6712 278.092 22.8952C277.126 24.1192 276.65 26.2288 276.65 29.224C276.65 32.2192 277.133 34.336 278.092 35.56C279.051 36.784 280.681 37.3888 282.952 37.3888C285.223 37.3888 286.845 36.748 287.811 35.56Z" fill="#6236FF"/>
<path d="M307.328 8.5024H321.56C321.626 8.50272 321.69 8.52579 321.741 8.56775C321.793 8.60971 321.828 8.66799 321.841 8.7328L324.465 21.88C324.49 22.0084 324.558 22.1246 324.657 22.2095C324.757 22.2943 324.882 22.3429 325.013 22.3471C325.144 22.3512 325.272 22.3108 325.377 22.2325C325.482 22.1542 325.557 22.0426 325.59 21.916L327.32 15.5152C327.324 15.4913 327.324 15.4671 327.32 15.4432V9.0784C327.32 8.92564 327.381 8.77913 327.489 8.67111C327.597 8.56309 327.744 8.5024 327.897 8.5024H339.57C339.694 8.50181 339.816 8.54147 339.916 8.61544C340.016 8.68941 340.089 8.79372 340.125 8.9128L344.004 22.2256C344.039 22.3487 344.115 22.4564 344.219 22.5318C344.322 22.6071 344.448 22.6458 344.576 22.6416C344.705 22.6375 344.828 22.5908 344.927 22.509C345.025 22.4271 345.094 22.3147 345.121 22.1896L348.084 8.92C348.113 8.79241 348.184 8.67839 348.286 8.5971C348.389 8.5158 348.516 8.4722 348.647 8.4736H362.583C362.671 8.4744 362.758 8.49501 362.837 8.53388C362.915 8.57275 362.984 8.62888 363.038 8.69809C363.092 8.7673 363.13 8.84781 363.149 8.9336C363.167 9.0194 363.166 9.10827 363.146 9.1936L353.816 49.4488C353.788 49.5752 353.718 49.6883 353.617 49.7694C353.516 49.8506 353.391 49.895 353.261 49.8952H340.579C340.455 49.8946 340.334 49.8546 340.234 49.7807C340.134 49.7069 340.061 49.6033 340.024 49.4848L335.46 34.444C335.441 34.3864 335.405 34.3362 335.355 34.3006C335.306 34.2651 335.247 34.2459 335.186 34.2459C335.125 34.2459 335.066 34.2651 335.017 34.3006C334.968 34.3362 334.931 34.3864 334.912 34.444L329.981 49.5064C329.944 49.6222 329.871 49.7232 329.772 49.7944C329.673 49.8657 329.555 49.9035 329.433 49.9024H316.715C316.585 49.9012 316.459 49.8566 316.357 49.7758C316.255 49.6949 316.183 49.5824 316.152 49.456L306.78 9.2152C306.761 9.13153 306.76 9.04466 306.779 8.9608C306.797 8.87695 306.834 8.79816 306.886 8.73008C306.938 8.66199 307.005 8.60629 307.081 8.56693C307.158 8.52757 307.242 8.50554 307.328 8.5024V8.5024Z" fill="#6236FF"/>
<path d="M368.092 8.5024H400.088C400.241 8.5024 400.388 8.56309 400.496 8.67111C400.604 8.77913 400.665 8.92563 400.665 9.0784V19.108C400.665 19.2608 400.604 19.4073 400.496 19.5153C400.388 19.6233 400.241 19.684 400.088 19.684H383.383C383.307 19.684 383.234 19.7143 383.179 19.7684C383.125 19.8224 383.095 19.8956 383.095 19.972V23.1256C383.095 23.202 383.125 23.2752 383.179 23.3292C383.234 23.3833 383.307 23.4136 383.383 23.4136H397.644C397.72 23.4136 397.794 23.4285 397.864 23.4576C397.933 23.4866 397.997 23.5292 398.05 23.5827C398.103 23.6363 398.144 23.6999 398.173 23.7697C398.201 23.8396 398.215 23.9143 398.214 23.9896V34.408C398.215 34.4833 398.201 34.558 398.173 34.6279C398.144 34.6977 398.103 34.7613 398.05 34.8149C397.997 34.8684 397.933 34.911 397.864 34.94C397.794 34.9691 397.72 34.984 397.644 34.984H383.383C383.307 34.984 383.234 35.0143 383.179 35.0684C383.125 35.1224 383.095 35.1956 383.095 35.272V38.44C383.095 38.5164 383.125 38.5896 383.179 38.6436C383.234 38.6977 383.307 38.728 383.383 38.728H400.088C400.164 38.727 400.239 38.7411 400.309 38.7692C400.378 38.7974 400.442 38.8391 400.496 38.892C400.549 38.9449 400.592 39.008 400.621 39.0775C400.65 39.1469 400.665 39.2215 400.665 39.2968V49.3192C400.665 49.472 400.604 49.6185 400.496 49.7265C400.388 49.8345 400.241 49.8952 400.088 49.8952H368.092C367.939 49.8952 367.792 49.8345 367.684 49.7265C367.575 49.6185 367.515 49.472 367.515 49.3192V9.0784C367.515 8.92563 367.575 8.77913 367.684 8.67111C367.792 8.56309 367.939 8.5024 368.092 8.5024V8.5024Z" fill="#6236FF"/>
<path d="M407.002 9.0784C407.002 8.92563 407.063 8.77913 407.171 8.67111C407.28 8.56309 407.426 8.5024 407.579 8.5024H430.297C435.402 8.5024 439.297 9.9256 441.984 12.772C444.671 15.6184 446.01 19.3576 446 23.9896C446.042 26.5356 445.338 29.0383 443.974 31.1896C442.674 33.216 440.983 34.9635 438.999 36.3304C438.964 36.3565 438.935 36.3906 438.914 36.43C438.894 36.4694 438.884 36.513 438.884 36.5572C438.884 36.6014 438.894 36.645 438.914 36.6844C438.935 36.7238 438.964 36.7579 438.999 36.784C439.64 37.2758 440.138 37.9295 440.441 38.6776L444.983 49.1176C445.022 49.2056 445.038 49.3019 445.029 49.3976C445.021 49.4933 444.989 49.5854 444.936 49.6655C444.883 49.7457 444.811 49.8113 444.726 49.8565C444.641 49.9016 444.546 49.9248 444.45 49.924H429.454C429.342 49.9245 429.232 49.8919 429.138 49.8305C429.045 49.769 428.971 49.6813 428.927 49.5784L425.02 40.7296C424.874 40.3212 424.625 39.9568 424.299 39.6712C423.974 39.4591 423.59 39.358 423.203 39.3832H422.561V49.3192C422.561 49.472 422.5 49.6185 422.392 49.7265C422.284 49.8345 422.137 49.8952 421.984 49.8952H407.565C407.412 49.8952 407.265 49.8345 407.157 49.7265C407.049 49.6185 406.988 49.472 406.988 49.3192L407.002 9.0784ZM426.375 27.208C428.903 27.208 430.167 26.1352 430.167 23.9896C430.208 23.5303 430.152 23.0676 430.003 22.6312C429.854 22.1948 429.615 21.7942 429.302 21.4552C428.547 20.8587 427.594 20.5704 426.635 20.6488H422.864C422.787 20.6488 422.714 20.6791 422.66 20.7332C422.606 20.7872 422.576 20.8604 422.576 20.9368V26.92C422.576 26.9964 422.606 27.0696 422.66 27.1236C422.714 27.1777 422.787 27.208 422.864 27.208H426.375Z" fill="#6236FF"/>
<path d="M170.09 60.58C170.09 60.4272 170.151 60.2807 170.259 60.1727C170.367 60.0647 170.514 60.004 170.667 60.004H193.241C198.316 60.004 202.188 61.42 204.856 64.252C207.523 67.084 208.855 70.7992 208.85 75.3976C208.884 77.918 208.186 80.3942 206.838 82.5256C205.546 84.5384 203.864 86.2738 201.892 87.6304C201.857 87.6565 201.828 87.6906 201.807 87.73C201.787 87.7694 201.777 87.813 201.777 87.8572C201.777 87.9014 201.787 87.945 201.807 87.9844C201.828 88.0238 201.857 88.0579 201.892 88.084C202.531 88.5724 203.028 89.2207 203.334 89.9632L207.797 100.36C207.835 100.447 207.851 100.543 207.843 100.638C207.835 100.733 207.804 100.825 207.752 100.905C207.7 100.985 207.628 101.051 207.544 101.096C207.46 101.142 207.366 101.166 207.271 101.166H192.404C192.292 101.167 192.183 101.134 192.089 101.073C191.995 101.011 191.922 100.924 191.878 100.821L187.999 92.0296C187.855 91.6221 187.607 91.2596 187.278 90.9784C186.957 90.7663 186.574 90.6652 186.19 90.6904H185.57V100.59C185.57 100.743 185.509 100.89 185.401 100.998C185.292 101.106 185.146 101.166 184.993 101.166H170.667C170.514 101.166 170.367 101.106 170.259 100.998C170.151 100.89 170.09 100.743 170.09 100.59V60.58ZM189.34 78.58C191.859 78.58 193.118 77.5144 193.118 75.3832C193.158 74.9261 193.102 74.4657 192.953 74.0316C192.804 73.5976 192.565 73.1995 192.253 72.8632C191.501 72.2734 190.553 71.988 189.6 72.064H185.858C185.82 72.064 185.783 72.0714 185.748 72.0859C185.713 72.1004 185.681 72.1216 185.654 72.1484C185.627 72.1751 185.606 72.2068 185.591 72.2418C185.577 72.2767 185.57 72.3142 185.57 72.352V78.292C185.57 78.3684 185.6 78.4416 185.654 78.4956C185.708 78.5497 185.781 78.58 185.858 78.58H189.34Z" fill="#6236FF"/>
<path d="M218.417 96.796C214.682 93.4744 212.815 88.0672 212.815 80.5744C212.815 73.0816 214.682 67.6768 218.417 64.36C222.147 61.0336 227.636 59.3704 234.884 59.3704C242.132 59.3704 247.624 61.0336 251.358 64.36C255.084 67.6768 256.946 73.0816 256.946 80.5744C256.946 88.0672 255.081 93.4744 251.351 96.796C247.621 100.132 242.132 101.8 234.884 101.8C227.636 101.8 222.147 100.132 218.417 96.796ZM239.715 86.8672C240.676 85.648 241.157 83.5504 241.157 80.5744C241.157 77.5984 240.676 75.5008 239.715 74.2816C238.756 73.072 237.148 72.46 234.884 72.46C232.62 72.46 231.013 73.072 230.054 74.2816C229.095 75.4912 228.612 77.5936 228.612 80.5744C228.612 83.5552 229.088 85.6144 230.054 86.8672C231.02 88.12 232.628 88.6888 234.884 88.6888C237.141 88.6888 238.756 88.12 239.715 86.8672V86.8672Z" fill="#6236FF"/>
<path d="M259.491 99.6832V88.6888C259.49 88.554 259.52 88.4207 259.58 88.2998C259.64 88.1789 259.727 88.0739 259.836 87.9932C259.944 87.9125 260.07 87.8584 260.203 87.8354C260.336 87.8124 260.472 87.8211 260.601 87.8608C262.567 88.44 264.609 88.7192 266.658 88.6888C268.575 88.6888 269.938 88.3 270.753 87.5368C271.567 86.7736 271.964 85.4488 271.964 83.5768V60.58C271.964 60.4272 272.025 60.2807 272.133 60.1727C272.241 60.0647 272.388 60.004 272.541 60.004H286.866C287.019 60.004 287.166 60.0647 287.274 60.1727C287.382 60.2807 287.443 60.4272 287.443 60.58V87.3424C287.443 92.1184 285.941 95.7184 282.937 98.1424C279.933 100.566 275.571 101.786 269.851 101.8C266.555 101.847 263.269 101.415 260.097 100.518C259.919 100.464 259.763 100.353 259.654 100.202C259.545 100.051 259.488 99.8692 259.491 99.6832V99.6832Z" fill="#6236FF"/>
<path d="M294.35 60.04H326.16C326.313 60.04 326.459 60.1007 326.567 60.2087C326.676 60.3167 326.736 60.4632 326.736 60.616V70.5448C326.736 70.6976 326.676 70.8441 326.567 70.9521C326.459 71.0601 326.313 71.1208 326.16 71.1208H309.577C309.539 71.1198 309.501 71.1266 309.466 71.1407C309.43 71.1548 309.398 71.176 309.371 71.203C309.344 71.2299 309.323 71.262 309.309 71.2974C309.295 71.3328 309.288 71.3707 309.289 71.4088V74.5408C309.289 74.5783 309.296 74.6154 309.311 74.65C309.325 74.6845 309.347 74.7158 309.374 74.7419C309.401 74.7681 309.432 74.7887 309.467 74.8023C309.502 74.816 309.54 74.8226 309.577 74.8216H323.744C323.82 74.8216 323.894 74.8365 323.964 74.8656C324.034 74.8946 324.097 74.9372 324.15 74.9907C324.203 75.0443 324.244 75.1079 324.273 75.1777C324.301 75.2476 324.315 75.3223 324.314 75.3976V85.7512C324.315 85.8265 324.301 85.9012 324.273 85.9711C324.244 86.0409 324.203 86.1045 324.15 86.1581C324.097 86.2117 324.034 86.2542 323.964 86.2832C323.894 86.3123 323.82 86.3272 323.744 86.3272H309.577C309.54 86.3262 309.502 86.3328 309.467 86.3465C309.432 86.3602 309.401 86.3807 309.374 86.4069C309.347 86.433 309.325 86.4643 309.311 86.4989C309.296 86.5334 309.289 86.5705 309.289 86.608V89.74C309.288 89.7781 309.295 89.816 309.309 89.8514C309.323 89.8868 309.344 89.9189 309.371 89.9459C309.398 89.9728 309.43 89.994 309.466 90.0081C309.501 90.0222 309.539 90.029 309.577 90.028H326.16C326.313 90.028 326.459 90.0887 326.567 90.1967C326.676 90.3047 326.736 90.4512 326.736 90.604V100.569C326.736 100.644 326.721 100.719 326.692 100.789C326.664 100.859 326.621 100.923 326.567 100.976C326.514 101.03 326.45 101.072 326.38 101.101C326.31 101.13 326.235 101.145 326.16 101.145H294.365C294.289 101.145 294.215 101.13 294.145 101.101C294.075 101.072 294.012 101.029 293.959 100.976C293.906 100.922 293.865 100.859 293.836 100.789C293.808 100.719 293.794 100.644 293.795 100.569V60.58C293.802 60.4366 293.864 60.3013 293.966 60.2012C294.069 60.101 294.207 60.0435 294.35 60.04V60.04Z" fill="#6236FF"/>
<path d="M337.998 96.4144C333.845 92.8432 331.766 87.5632 331.762 80.5744C331.757 73.5856 333.814 68.3056 337.933 64.7344C342.052 61.1584 348.161 59.368 356.26 59.3632C358.543 59.3463 360.823 59.5294 363.074 59.9104C365.036 60.2685 366.965 60.7887 368.841 61.4656C368.953 61.5055 369.049 61.5788 369.118 61.6754C369.186 61.772 369.223 61.8873 369.223 62.0056V74.1952C369.223 74.2894 369.2 74.3822 369.155 74.4653C369.111 74.5484 369.047 74.6194 368.969 74.672C368.89 74.7245 368.8 74.7572 368.706 74.7669C368.613 74.7767 368.518 74.7633 368.43 74.728C364.906 73.1964 361.106 72.4025 357.262 72.3952C354.066 72.3952 351.646 73.0144 350.002 74.2528C348.358 75.4912 347.539 77.5984 347.544 80.5744C347.544 83.512 348.385 85.6096 350.067 86.8672C351.749 88.1248 354.191 88.7536 357.392 88.7536C361.233 88.748 365.032 87.954 368.553 86.4208C368.641 86.3839 368.736 86.3694 368.831 86.3784C368.926 86.3874 369.017 86.4198 369.096 86.4725C369.176 86.5253 369.241 86.5969 369.285 86.6808C369.33 86.7647 369.353 86.8585 369.353 86.9536V99.1432C369.353 99.2615 369.316 99.3768 369.247 99.4734C369.179 99.57 369.083 99.6433 368.971 99.6832C367.095 100.359 365.165 100.88 363.203 101.238C360.953 101.619 358.673 101.802 356.39 101.786C348.286 101.795 342.156 100.005 337.998 96.4144Z" fill="#6236FF"/>
<path d="M385.049 71.1208H375.424C375.271 71.1208 375.124 71.0601 375.016 70.9521C374.908 70.8441 374.847 70.6976 374.847 70.5448V60.58C374.847 60.4272 374.908 60.2807 375.016 60.1727C375.124 60.0647 375.271 60.004 375.424 60.004H410.752C410.905 60.004 411.051 60.0647 411.159 60.1727C411.268 60.2807 411.328 60.4272 411.328 60.58V70.5448C411.328 70.6976 411.268 70.8441 411.159 70.9521C411.051 71.0601 410.905 71.1208 410.752 71.1208H401.141C401.065 71.1208 400.991 71.1511 400.937 71.2052C400.883 71.2592 400.853 71.3324 400.853 71.4088V100.569C400.853 100.722 400.792 100.868 400.684 100.976C400.575 101.084 400.429 101.145 400.276 101.145H385.914C385.761 101.145 385.614 101.084 385.506 100.976C385.398 100.868 385.337 100.722 385.337 100.569V71.4088C385.337 71.3324 385.307 71.2592 385.253 71.2052C385.199 71.1511 385.125 71.1208 385.049 71.1208V71.1208Z" fill="#6236FF"/>
</svg>
